<svg width="705" height="884" viewBox="0 0 705 884" fill="none" xmlns="http://www.w3.org/2000/svg">
<rect width="705" height="884" fill="#EFE5D9"/>
<path d="M146.274 179.371H145.774V179.871V785.291V786.246L146.559 785.702L209.994 741.742L210.209 741.593V741.331V179.871V179.371H209.709H146.274Z" fill="#D0F39F" stroke="black"/>
<path d="M210.173 741.7L209.936 741.114L209.421 741.48L148.211 784.883L146.93 785.791H148.5H597H597.5V785.291V635.467V634.967H597H595.037H594.757L594.61 635.206C568.012 678.847 546.224 698.424 527.242 704.189C508.311 709.938 492.017 701.99 476.242 690.083C470.325 685.616 464.505 680.611 458.656 675.581C456.707 673.906 454.756 672.228 452.797 670.567C444.968 663.926 437.023 657.554 428.723 652.73C420.419 647.903 411.738 644.613 402.431 644.156C393.118 643.698 383.221 646.079 372.492 652.53C341.15 671.377 314.02 696.374 291.101 717.492C282.823 725.118 275.095 732.239 267.916 738.381C261.144 744.175 254.865 749.096 249.071 752.761C243.273 756.43 237.992 758.821 233.214 759.59C228.456 760.355 224.195 759.513 220.386 756.701C216.56 753.876 213.146 749.028 210.173 741.7Z" fill="#D0F39F" stroke="black"/>
<path d="M409.801 166.81L380.827 122L44.9999 339.149L73.9744 383.959L409.801 166.81Z" fill="#404682"/>
<path d="M341.166 374.199C430.065 368.331 413.173 346.156 377.474 311.026C341.775 275.896 307.464 241.168 350.435 235.551C393.405 229.934 444.04 278.404 434.122 230.807C426.189 192.73 388.222 175.061 370.231 170.987" stroke="#253834" stroke-width="4"/>
<circle cx="372.847" cy="456.984" r="127.097" transform="rotate(10.7411 372.847 456.984)" fill="white" stroke="black" stroke-width="4"/>
<path d="M354.876 581.576C298.112 570.808 262.543 507.006 275.43 439.071C288.317 371.135 344.78 324.792 401.544 335.559" stroke="black" stroke-width="4"/>
<path d="M354.876 581.576C313.813 573.786 290.972 512.399 303.859 444.463C316.746 376.528 360.481 327.77 401.544 335.559" stroke="black" stroke-width="4"/>
<path d="M349.409 580.539C332.501 577.331 329.241 519.658 342.128 451.723C355.015 383.787 379.169 331.315 396.077 334.522" stroke="black" stroke-width="4"/>
<path d="M349.409 580.539C366.317 583.746 390.471 531.274 403.358 463.338C416.245 395.403 412.985 337.73 396.077 334.522" stroke="black" stroke-width="4"/>
<path d="M349.409 580.539C390.472 588.328 434.208 539.57 447.095 471.635C459.982 403.699 437.14 342.312 396.077 334.523" stroke="black" stroke-width="4"/>
<path d="M351.596 580.953C408.36 591.721 464.823 545.378 477.71 477.442C490.597 409.507 455.028 345.705 398.264 334.937" stroke="black" stroke-width="4"/>
<path d="M496.645 430.59C493.084 451.181 438.491 458.639 374.708 447.249C310.925 435.859 262.105 409.934 265.666 389.344" stroke="black" stroke-width="4"/>
<path d="M496.644 482.65C493.083 503.24 434.431 509.974 365.641 497.69C296.852 485.406 243.973 458.756 247.534 438.166" stroke="black" stroke-width="4"/>
<path d="M480.242 524.871C469.405 541.338 421.615 552.1 358.295 540.793C294.975 529.486 251.54 498.718 248.758 483.693" stroke="black" stroke-width="4"/>
<path d="M438.508 565.492C413.468 574.395 405.896 577.772 352.68 568.269C299.463 558.766 288.822 549.355 275.468 538.782" stroke="black" stroke-width="4"/>
<path d="M480.682 388.495C478.041 405.945 433.897 413.5 382.083 405.369C330.269 397.238 290.407 376.499 293.048 359.048" stroke="black" stroke-width="4"/>
</svg>
