<svg width="705" height="884" viewBox="0 0 705 884" fill="none" xmlns="http://www.w3.org/2000/svg">
<rect width="705" height="884" fill="#EFE5D9"/>
<path d="M146.274 179.371H145.774V179.871V785.291V786.246L146.559 785.702L209.994 741.742L210.209 741.593V741.331V179.871V179.371H209.709H146.274Z" fill="#D0F39F" stroke="black"/>
<path d="M210.173 741.7L209.936 741.115L209.421 741.48L148.211 784.883L146.93 785.791H148.5H597H597.5V785.291V635.467V634.967H597H595.037H594.757L594.61 635.207C568.012 678.848 546.224 698.424 527.242 704.189C508.311 709.938 492.017 701.99 476.242 690.083C470.325 685.616 464.505 680.611 458.656 675.582C456.707 673.907 454.756 672.229 452.797 670.567C444.968 663.926 437.023 657.554 428.723 652.73C420.419 647.904 411.738 644.613 402.431 644.156C393.118 643.698 383.221 646.079 372.492 652.53C341.15 671.377 314.02 696.374 291.101 717.492C282.823 725.119 275.095 732.239 267.916 738.382C261.144 744.175 254.865 749.096 249.071 752.762C243.273 756.43 237.992 758.821 233.214 759.59C228.456 760.355 224.195 759.513 220.386 756.701C216.56 753.876 213.146 749.029 210.173 741.7Z" fill="#D0F39F" stroke="black"/>
<path d="M409.802 166.81L380.827 122L45.0004 339.149L73.9749 383.959L409.802 166.81Z" fill="#404682"/>
<path d="M341.166 374.199C430.065 368.331 413.173 346.156 377.474 311.026C341.775 275.896 307.464 241.168 350.435 235.551C393.405 229.934 444.04 278.404 434.122 230.807C426.189 192.73 388.222 175.061 370.231 170.987" stroke="#253834" stroke-width="4"/>
<path d="M514.585 568.054C513.501 583.349 504.512 620.812 486.961 633.736C482.947 633.152 474.82 630.834 474.424 626.235C473.93 620.486 497.238 581.491 500.083 563.118C502.929 544.745 479.928 497.407 475.459 480.158C470.989 462.91 482.376 475.03 491.958 473.598C501.54 472.167 515.669 552.759 514.585 568.054Z" fill="#404682" stroke="#253834" stroke-width="4"/>
<path d="M302.377 612.862C303.195 624.41 309.982 652.694 323.233 662.451C326.264 662.01 332.399 660.26 332.698 656.788C333.071 652.448 315.474 623.007 313.325 609.135C311.177 595.264 328.542 559.524 331.917 546.502C335.291 533.479 326.694 542.63 319.46 541.549C312.226 540.469 301.558 601.315 302.377 612.862Z" fill="black" stroke="black" stroke-width="4"/>
<path d="M314.302 653.076C317.544 652.546 324.122 650.529 324.493 646.706C333.86 631.572 348.704 665.266 354.027 672.345C359.349 679.423 343.608 700.956 337.478 707.948C331.348 714.94 321.229 722.331 312.329 724.251C303.428 726.171 304.962 722.315 301.778 717.079C298.595 711.843 293.493 699.393 305.584 685.838L314.302 653.076Z" fill="white"/>
<path d="M324.493 646.706C324.122 650.529 317.544 652.546 314.302 653.076L305.584 685.838M324.493 646.706C333.86 631.572 348.704 665.266 354.027 672.345C359.349 679.423 343.608 700.956 337.478 707.948M324.493 646.706C330.541 668.561 317.334 693.984 317.334 693.984M305.584 685.838C293.493 699.393 298.595 711.843 301.778 717.079C304.962 722.315 303.428 726.171 312.329 724.251C321.229 722.331 331.348 714.94 337.478 707.948M305.584 685.838C303.318 692.07 305.442 694.054 317.334 693.984M337.478 707.948C335.342 698.275 334.882 692.31 317.334 693.984" stroke="black" stroke-width="4"/>
<path d="M395.861 612.862C396.68 624.41 403.466 652.694 416.717 662.451C419.748 662.01 425.883 660.26 426.182 656.788C426.555 652.448 408.958 623.007 406.81 609.135C404.661 595.264 422.027 559.524 425.401 546.502C428.776 533.479 420.179 542.63 412.945 541.549C405.711 540.469 395.043 601.315 395.861 612.862Z" fill="black" stroke="black" stroke-width="4"/>
<path d="M407.786 653.076C411.028 652.546 417.606 650.529 417.977 646.706C427.345 631.572 442.189 665.266 447.511 672.345C452.834 679.423 437.093 700.956 430.962 707.948C424.832 714.94 414.713 722.331 405.813 724.251C396.912 726.171 398.446 722.315 395.263 717.079C392.079 711.843 386.978 699.393 399.068 685.838L407.786 653.076Z" fill="white"/>
<path d="M417.977 646.706C417.606 650.529 411.028 652.546 407.786 653.076L399.068 685.838M417.977 646.706C427.345 631.572 442.189 665.266 447.511 672.345C452.834 679.423 437.093 700.956 430.962 707.948M417.977 646.706C424.025 668.561 410.819 693.984 410.819 693.984M399.068 685.838C386.978 699.393 392.079 711.843 395.263 717.079C398.446 722.315 396.912 726.171 405.813 724.251C414.713 722.331 424.832 714.94 430.962 707.948M399.068 685.838C396.802 692.07 398.926 694.054 410.819 693.984M430.962 707.948C428.827 698.275 428.366 692.31 410.819 693.984" stroke="black" stroke-width="4"/>
<path d="M251.809 518.522C243.632 531.492 218.018 560.272 196.444 563.377C193.181 560.966 187.112 555.086 188.935 550.845C191.214 545.544 230.173 522.176 241.357 507.323C252.541 492.471 254.618 439.882 258.822 422.567C263.027 405.252 267.342 421.312 276.464 424.575C285.586 427.837 259.987 505.551 251.809 518.522Z" fill="#404682" stroke="#253834" stroke-width="4"/>
<circle cx="372.847" cy="456.984" r="127.097" transform="rotate(10.7411 372.847 456.984)" fill="white" stroke="black" stroke-width="4"/>
<path d="M354.876 581.576C298.112 570.808 262.543 507.006 275.43 439.071C288.317 371.135 344.78 324.792 401.544 335.559" stroke="black" stroke-width="4"/>
<path d="M354.876 581.575C313.813 573.786 290.972 512.399 303.859 444.463C316.746 376.528 360.481 327.77 401.544 335.559" stroke="black" stroke-width="4"/>
<path d="M349.409 580.539C332.501 577.331 329.241 519.658 342.128 451.723C355.015 383.787 379.169 331.315 396.077 334.522" stroke="black" stroke-width="4"/>
<path d="M349.409 580.539C366.317 583.746 390.471 531.274 403.358 463.338C416.245 395.403 412.985 337.73 396.077 334.522" stroke="black" stroke-width="4"/>
<path d="M349.409 580.538C390.472 588.328 434.208 539.57 447.095 471.635C459.982 403.699 437.14 342.312 396.077 334.522" stroke="black" stroke-width="4"/>
<path d="M351.596 580.953C408.36 591.721 464.823 545.378 477.71 477.442C490.597 409.507 455.028 345.705 398.264 334.937" stroke="black" stroke-width="4"/>
<path d="M496.645 430.59C493.084 451.181 438.491 458.639 374.708 447.249C310.925 435.859 262.105 409.934 265.666 389.344" stroke="black" stroke-width="4"/>
<path d="M496.644 482.65C493.083 503.24 434.431 509.974 365.641 497.69C296.852 485.406 243.973 458.756 247.534 438.165" stroke="black" stroke-width="4"/>
<path d="M480.242 524.871C469.405 541.338 421.615 552.1 358.295 540.793C294.975 529.486 251.54 498.717 248.758 483.693" stroke="black" stroke-width="4"/>
<path d="M438.508 565.492C413.468 574.395 405.896 577.772 352.68 568.269C299.463 558.766 288.822 549.355 275.468 538.782" stroke="black" stroke-width="4"/>
<path d="M480.682 388.495C478.041 405.946 433.897 413.501 382.083 405.369C330.269 397.238 290.407 376.499 293.048 359.048" stroke="black" stroke-width="4"/>
<path d="M361.817 413.465C359.978 426.158 355.325 437.142 349.365 444.645C343.378 452.182 336.29 455.977 329.52 454.996C322.751 454.016 317.03 448.366 313.429 439.44C309.843 430.554 308.497 418.701 310.336 406.008C312.175 393.315 316.828 382.331 322.788 374.827C328.774 367.29 335.863 363.496 342.633 364.477C349.402 365.457 355.123 371.107 358.724 380.033C362.31 388.919 363.656 400.772 361.817 413.465Z" fill="white" stroke="black" stroke-width="3"/>
<path d="M436.707 421.169C434.831 434.119 430.083 445.327 424.001 452.985C417.891 460.677 410.652 464.556 403.732 463.554C396.813 462.551 390.972 456.777 387.296 447.668C383.636 438.599 382.264 426.504 384.14 413.554C386.016 400.604 390.764 389.395 396.846 381.737C402.956 374.046 410.195 370.167 417.115 371.169C424.034 372.171 429.875 377.945 433.551 387.054C437.211 396.123 438.583 408.218 436.707 421.169Z" fill="white" stroke="black" stroke-width="3"/>
<path d="M319.219 473.539L409.769 487.982C418.754 489.416 424.876 497.861 423.443 506.846L421.547 518.729C420.808 523.365 416.45 526.524 411.815 525.784L307.49 509.143C301.763 508.23 297.861 502.847 298.775 497.121L300.355 487.212C301.788 478.227 310.234 472.105 319.219 473.539Z" fill="black" stroke="black" stroke-width="3"/>
<path d="M327.473 507.322C326.564 509.614 326.564 510.56 326.564 510.56L387.774 521.532C387.774 518.553 386.32 514.828 384.092 511.197C381.334 506.702 378.932 505.081 371.773 503.655C364.095 502.125 359.613 502.594 351.183 506.702C349.057 507.227 348.558 507.102 347.517 505.29C339.028 496.727 328.381 505.03 327.473 507.322Z" fill="white" stroke="black" stroke-width="3" stroke-linecap="round"/>
<path d="M322.264 398.514L332.236 407.438L325.789 412.485L316.313 404.004L322.264 398.514ZM326.546 413.162L332.993 408.116L339.143 413.62L332.696 418.667L326.546 413.162ZM344.243 399.309L349.884 405.212L339.943 412.994L333.792 407.49L344.243 399.309ZM333.453 419.344L339.9 414.298L349.375 422.779L343.424 428.269L333.453 419.344ZM325.746 413.789L331.896 419.293L321.446 427.473L315.805 421.57L325.746 413.789ZM399.375 402.362L406.668 413.582L399.126 416.769L392.196 406.105L399.375 402.362ZM387.114 422.929L398.744 418.016L403.241 424.936L391.017 430.101L387.114 422.929ZM412.022 436.612L404.73 425.393L412.272 422.206L419.202 432.868L412.022 436.612ZM424.284 416.046L412.654 420.959L408.157 414.039L420.382 408.873L424.284 416.046ZM407.221 414.434L411.719 421.354L404.177 424.541L399.679 417.62L407.221 414.434Z" fill="black" stroke="black"/>
</svg>
