<svg width="705" height="884" viewBox="0 0 705 884" fill="none" xmlns="http://www.w3.org/2000/svg">
<rect width="705" height="884" fill="#EFE5D9"/>
<path d="M146.274 179.371H145.774V179.871V785.291V786.246L146.559 785.702L209.994 741.742L210.209 741.593V741.331V179.871V179.371H209.709H146.274Z" fill="#D0F39F" stroke="black"/>
<path d="M210.173 741.7L209.935 741.115L209.42 741.48L148.21 784.883L146.93 785.791H148.5H597H597.5V785.291V635.467V634.967H597H595.037H594.756L594.61 635.207C568.011 678.848 546.224 698.424 527.241 704.189C508.311 709.938 492.016 701.99 476.242 690.083C470.325 685.616 464.504 680.611 458.655 675.582C456.707 673.907 454.756 672.229 452.797 670.567C444.967 663.926 437.023 657.554 428.722 652.73C420.419 647.904 411.737 644.613 402.431 644.156C393.118 643.698 383.22 646.079 372.492 652.53C341.149 671.377 314.019 696.374 291.1 717.492C282.823 725.119 275.094 732.239 267.915 738.382C261.144 744.175 254.865 749.096 249.071 752.762C243.272 756.43 237.992 758.821 233.214 759.59C228.455 760.355 224.194 759.513 220.386 756.701C216.559 753.876 213.146 749.029 210.173 741.7Z" fill="#D0F39F" stroke="black"/>
</svg>
