<svg width="705" height="884" viewBox="0 0 705 884" fill="none" xmlns="http://www.w3.org/2000/svg">
<rect width="705" height="884" fill="#EFE5D9"/>
<path d="M210.173 741.7L209.936 741.115L209.421 741.48L148.211 784.883L146.93 785.791H148.5H597H597.5V785.291V635.467V634.967H597H595.037H594.757L594.61 635.207C568.012 678.848 546.224 698.424 527.242 704.189C508.311 709.938 492.017 701.99 476.242 690.083C470.325 685.616 464.505 680.611 458.656 675.582C456.707 673.907 454.756 672.229 452.797 670.567C444.968 663.926 437.023 657.554 428.723 652.73C420.419 647.904 411.738 644.613 402.431 644.156C393.118 643.698 383.221 646.079 372.492 652.53C341.15 671.377 314.02 696.374 291.101 717.492C282.823 725.119 275.095 732.239 267.916 738.382C261.144 744.175 254.865 749.096 249.071 752.762C243.273 756.43 237.992 758.821 233.214 759.59C228.456 760.355 224.195 759.513 220.386 756.701C216.56 753.876 213.146 749.029 210.173 741.7Z" fill="#D0F39F" stroke="black"/>
</svg>
