<svg width="705" height="884" viewBox="0 0 705 884" fill="none" xmlns="http://www.w3.org/2000/svg">
<rect width="705" height="884" fill="#EFE5D9"/>
<path d="M146.273 179.371H145.773V179.871V785.291V786.245L146.558 785.702L209.993 741.742L210.208 741.593V741.331V179.871V179.371H209.708H146.273Z" fill="#D0F39F" stroke="black"/>
<path d="M210.172 741.7L209.935 741.114L209.42 741.48L148.21 784.883L146.929 785.791H148.499H596.999H597.499V785.291V635.467V634.967H596.999H595.036H594.756L594.609 635.206C568.011 678.847 546.223 698.424 527.241 704.189C508.31 709.938 492.016 701.99 476.241 690.083C470.324 685.616 464.504 680.611 458.655 675.581C456.707 673.906 454.755 672.228 452.796 670.567C444.967 663.926 437.022 657.554 428.722 652.73C420.418 647.903 411.737 644.613 402.43 644.156C393.117 643.698 383.22 646.079 372.492 652.53C341.149 671.377 314.019 696.374 291.1 717.492C282.822 725.118 275.094 732.239 267.915 738.381C261.143 744.175 254.864 749.096 249.07 752.761C243.272 756.43 237.991 758.821 233.213 759.59C228.455 760.355 224.194 759.513 220.385 756.701C216.559 753.876 213.145 749.028 210.172 741.7Z" fill="#D0F39F" stroke="black"/>
<path d="M330.166 81.7915L281.22 60.5369L121.928 427.36L170.873 448.615L330.166 81.7915Z" fill="#404682"/>
</svg>
